<?xml version="1.0" encoding="UTF-8" standalone="no"?>
<!DOCTYPE svg PUBLIC "-//W3C//DTD SVG 1.1//EN"
 "http://www.w3.org/Graphics/SVG/1.1/DTD/svg11.dtd">
<!-- Generated by graphviz version 2.43.0 (0)
 -->
<!-- Title: VCDFileParser Pages: 1 -->
<svg width="135pt" height="162pt"
 viewBox="0.00 0.00 134.50 162.00" xmlns="http://www.w3.org/2000/svg" xmlns:xlink="http://www.w3.org/1999/xlink">
<g id="graph0" class="graph" transform="scale(1 1) rotate(0) translate(4 158)">
<title>VCDFileParser</title>
<polygon fill="white" stroke="transparent" points="-4,4 -4,-158 130.5,-158 130.5,4 -4,4"/>
<!-- Node1 -->
<g id="node1" class="node">
<title>Node1</title>
<g id="a_node1"><a xlink:title="Class for parsing files containing CSP notation.">
<polygon fill="#bfbfbf" stroke="black" points="0,-0.5 0,-19.5 85,-19.5 85,-0.5 0,-0.5"/>
<text text-anchor="middle" x="42.5" y="-7.5" font-family="Helvetica,sans-Serif" font-size="10.00">VCDFileParser</text>
</a>
</g>
</g>
<!-- Node2 -->
<g id="node2" class="node">
<title>Node2</title>
<g id="a_node2"><a xlink:href="classVCDFile.html" target="_top" xlink:title="Top level object to represent a single VCD file.">
<polygon fill="white" stroke="black" points="15,-67.5 15,-86.5 70,-86.5 70,-67.5 15,-67.5"/>
<text text-anchor="middle" x="42.5" y="-74.5" font-family="Helvetica,sans-Serif" font-size="10.00">VCDFile</text>
</a>
</g>
</g>
<!-- Node2&#45;&gt;Node1 -->
<g id="edge1" class="edge">
<title>Node2&#45;&gt;Node1</title>
<path fill="none" stroke="#9a32cd" stroke-dasharray="5,2" d="M42.5,-57.04C42.5,-44.67 42.5,-29.12 42.5,-19.63"/>
<polygon fill="#9a32cd" stroke="#9a32cd" points="39,-57.23 42.5,-67.23 46,-57.23 39,-57.23"/>
<text text-anchor="middle" x="49" y="-41" font-family="Helvetica,sans-Serif" font-size="10.00"> fh</text>
</g>
<!-- Node3 -->
<g id="node3" class="node">
<title>Node3</title>
<g id="a_node3"><a xlink:href="structvcdscope.html" target="_top" xlink:title="Represents a scope type, scope name pair and all of it&#39;s child signals.">
<polygon fill="white" stroke="black" points="11.5,-134.5 11.5,-153.5 73.5,-153.5 73.5,-134.5 11.5,-134.5"/>
<text text-anchor="middle" x="42.5" y="-141.5" font-family="Helvetica,sans-Serif" font-size="10.00">vcdscope</text>
</a>
</g>
</g>
<!-- Node3&#45;&gt;Node2 -->
<g id="edge2" class="edge">
<title>Node3&#45;&gt;Node2</title>
<path fill="none" stroke="#9a32cd" stroke-dasharray="5,2" d="M42.5,-124.04C42.5,-111.67 42.5,-96.12 42.5,-86.63"/>
<polygon fill="#9a32cd" stroke="#9a32cd" points="39,-124.23 42.5,-134.23 46,-124.23 39,-124.23"/>
<text text-anchor="middle" x="71" y="-108" font-family="Helvetica,sans-Serif" font-size="10.00"> root_scope</text>
</g>
<!-- Node3&#45;&gt;Node3 -->
<g id="edge3" class="edge">
<title>Node3&#45;&gt;Node3</title>
<path fill="none" stroke="#9a32cd" stroke-dasharray="5,2" d="M83.65,-149.11C88.41,-148.16 91.5,-146.46 91.5,-144 91.5,-140.06 83.59,-138.06 73.6,-138"/>
<polygon fill="#9a32cd" stroke="#9a32cd" points="83.26,-145.63 73.6,-150 83.87,-152.61 83.26,-145.63"/>
<text text-anchor="middle" x="109" y="-141.5" font-family="Helvetica,sans-Serif" font-size="10.00"> parent</text>
</g>
</g>
</svg>
