<?xml version="1.0" encoding="UTF-8" standalone="no"?>
<!DOCTYPE svg PUBLIC "-//W3C//DTD SVG 1.1//EN"
 "http://www.w3.org/Graphics/SVG/1.1/DTD/svg11.dtd">
<!-- Generated by graphviz version 2.43.0 (0)
 -->
<!-- Title: VCDFileParser::parse_file Pages: 1 -->
<svg width="319pt" height="78pt"
 viewBox="0.00 0.00 319.00 77.50" xmlns="http://www.w3.org/2000/svg" xmlns:xlink="http://www.w3.org/1999/xlink">
<g id="graph0" class="graph" transform="scale(1 1) rotate(0) translate(4 73.5)">
<title>VCDFileParser::parse_file</title>
<polygon fill="white" stroke="transparent" points="-4,4 -4,-73.5 315,-73.5 315,4 -4,4"/>
<!-- Node1 -->
<g id="node1" class="node">
<title>Node1</title>
<g id="a_node1"><a xlink:title="Parse the suppled file.">
<polygon fill="#bfbfbf" stroke="black" points="0,-22.5 0,-41.5 138,-41.5 138,-22.5 0,-22.5"/>
<text text-anchor="middle" x="69" y="-29.5" font-family="Helvetica,sans-Serif" font-size="10.00">VCDFileParser::parse_file</text>
</a>
</g>
</g>
<!-- Node2 -->
<g id="node2" class="node">
<title>Node2</title>
<g id="a_node2"><a xlink:href="classVCDFileParser.html#a6495a1e0de0f322ac71687bbd2e8c76a" target="_top" xlink:title="Utility function for starting parsing.">
<polygon fill="white" stroke="black" points="186,-39 186,-69 299,-69 299,-39 186,-39"/>
<text text-anchor="start" x="194" y="-57" font-family="Helvetica,sans-Serif" font-size="10.00">VCDFileParser::scan</text>
<text text-anchor="middle" x="242.5" y="-46" font-family="Helvetica,sans-Serif" font-size="10.00">_begin</text>
</a>
</g>
</g>
<!-- Node1&#45;&gt;Node2 -->
<g id="edge1" class="edge">
<title>Node1&#45;&gt;Node2</title>
<path fill="none" stroke="midnightblue" d="M138.27,-40.76C150.61,-42.34 163.44,-43.99 175.7,-45.56"/>
<polygon fill="midnightblue" stroke="midnightblue" points="175.48,-49.06 185.84,-46.86 176.37,-42.12 175.48,-49.06"/>
</g>
<!-- Node3 -->
<g id="node3" class="node">
<title>Node3</title>
<g id="a_node3"><a xlink:href="classVCDFileParser.html#af21ecc8d90a462c98d97b4ab3aa303db" target="_top" xlink:title="Utility function for stopping parsing.">
<polygon fill="white" stroke="black" points="174,-0.5 174,-19.5 311,-19.5 311,-0.5 174,-0.5"/>
<text text-anchor="middle" x="242.5" y="-7.5" font-family="Helvetica,sans-Serif" font-size="10.00">VCDFileParser::scan_end</text>
</a>
</g>
</g>
<!-- Node1&#45;&gt;Node3 -->
<g id="edge2" class="edge">
<title>Node1&#45;&gt;Node3</title>
<path fill="none" stroke="midnightblue" d="M138.27,-23.24C146.67,-22.17 155.29,-21.06 163.81,-19.97"/>
<polygon fill="midnightblue" stroke="midnightblue" points="164.27,-23.44 173.74,-18.69 163.38,-16.49 164.27,-23.44"/>
</g>
</g>
</svg>
