<?xml version="1.0" encoding="UTF-8" standalone="no"?>
<!DOCTYPE svg PUBLIC "-//W3C//DTD SVG 1.1//EN"
 "http://www.w3.org/Graphics/SVG/1.1/DTD/svg11.dtd">
<!-- Generated by graphviz version 2.43.0 (0)
 -->
<!-- Title: VCDFileParser::scan_begin Pages: 1 -->
<svg width="372pt" height="39pt"
 viewBox="0.00 0.00 372.00 39.00" xmlns="http://www.w3.org/2000/svg" xmlns:xlink="http://www.w3.org/1999/xlink">
<g id="graph0" class="graph" transform="scale(1 1) rotate(0) translate(4 35)">
<title>VCDFileParser::scan_begin</title>
<polygon fill="white" stroke="transparent" points="-4,4 -4,-35 368,-35 368,4 -4,4"/>
<!-- Node1 -->
<g id="node1" class="node">
<title>Node1</title>
<g id="a_node1"><a xlink:title="Utility function for starting parsing.">
<polygon fill="#bfbfbf" stroke="black" points="251,-0.5 251,-30.5 364,-30.5 364,-0.5 251,-0.5"/>
<text text-anchor="start" x="259" y="-18.5" font-family="Helvetica,sans-Serif" font-size="10.00">VCDFileParser::scan</text>
<text text-anchor="middle" x="307.5" y="-7.5" font-family="Helvetica,sans-Serif" font-size="10.00">_begin</text>
</a>
</g>
</g>
<!-- Node2 -->
<g id="node2" class="node">
<title>Node2</title>
<g id="a_node2"><a xlink:href="classVCDFileParser.html#a2733fcd933090ee0cde34adb098abc99" target="_top" xlink:title="Parse the suppled file.">
<polygon fill="white" stroke="black" points="77,-6 77,-25 215,-25 215,-6 77,-6"/>
<text text-anchor="middle" x="146" y="-13" font-family="Helvetica,sans-Serif" font-size="10.00">VCDFileParser::parse_file</text>
</a>
</g>
</g>
<!-- Node1&#45;&gt;Node2 -->
<g id="edge1" class="edge">
<title>Node1&#45;&gt;Node2</title>
<path fill="none" stroke="midnightblue" d="M240.59,-15.5C232.17,-15.5 223.55,-15.5 215.11,-15.5"/>
<polygon fill="midnightblue" stroke="midnightblue" points="240.71,-19 250.71,-15.5 240.71,-12 240.71,-19"/>
</g>
<!-- Node3 -->
<g id="node3" class="node">
<title>Node3</title>
<g id="a_node3"><a xlink:href="VCDStandalone_8cpp.html#a3c04138a5bfe5d72780bb7e82a18e627" target="_top" xlink:title="Standalone test function to allow testing of the VCD file parser.">
<polygon fill="white" stroke="black" points="0,-6 0,-25 41,-25 41,-6 0,-6"/>
<text text-anchor="middle" x="20.5" y="-13" font-family="Helvetica,sans-Serif" font-size="10.00">main</text>
</a>
</g>
</g>
<!-- Node2&#45;&gt;Node3 -->
<g id="edge2" class="edge">
<title>Node2&#45;&gt;Node3</title>
<path fill="none" stroke="midnightblue" d="M66.47,-15.5C57.16,-15.5 48.4,-15.5 41.13,-15.5"/>
<polygon fill="midnightblue" stroke="midnightblue" points="66.75,-19 76.75,-15.5 66.75,-12 66.75,-19"/>
</g>
</g>
</svg>
