<?xml version="1.0" encoding="UTF-8" standalone="no"?>
<!DOCTYPE svg PUBLIC "-//W3C//DTD SVG 1.1//EN"
 "http://www.w3.org/Graphics/SVG/1.1/DTD/svg11.dtd">
<!-- Generated by graphviz version 2.43.0 (0)
 -->
<!-- Title: VCDTimedValue Pages: 1 -->
<svg width="118pt" height="162pt"
 viewBox="0.00 0.00 118.00 162.00" xmlns="http://www.w3.org/2000/svg" xmlns:xlink="http://www.w3.org/1999/xlink">
<g id="graph0" class="graph" transform="scale(1 1) rotate(0) translate(4 158)">
<title>VCDTimedValue</title>
<polygon fill="white" stroke="transparent" points="-4,4 -4,-158 114,-158 114,4 -4,4"/>
<!-- Node1 -->
<g id="node1" class="node">
<title>Node1</title>
<g id="a_node1"><a xlink:title="A signal value tagged with times.">
<polygon fill="#bfbfbf" stroke="black" points="7.5,-0.5 7.5,-19.5 102.5,-19.5 102.5,-0.5 7.5,-0.5"/>
<text text-anchor="middle" x="55" y="-7.5" font-family="Helvetica,sans-Serif" font-size="10.00">VCDTimedValue</text>
</a>
</g>
</g>
<!-- Node2 -->
<g id="node2" class="node">
<title>Node2</title>
<g id="a_node2"><a xlink:href="classVCDValue.html" target="_top" xlink:title="Represents a single value found in a VCD File.">
<polygon fill="white" stroke="black" points="22.5,-67.5 22.5,-86.5 87.5,-86.5 87.5,-67.5 22.5,-67.5"/>
<text text-anchor="middle" x="55" y="-74.5" font-family="Helvetica,sans-Serif" font-size="10.00">VCDValue</text>
</a>
</g>
</g>
<!-- Node2&#45;&gt;Node1 -->
<g id="edge1" class="edge">
<title>Node2&#45;&gt;Node1</title>
<path fill="none" stroke="#9a32cd" stroke-dasharray="5,2" d="M55,-57.04C55,-44.67 55,-29.12 55,-19.63"/>
<polygon fill="#9a32cd" stroke="#9a32cd" points="51.5,-57.23 55,-67.23 58.5,-57.23 51.5,-57.23"/>
<text text-anchor="middle" x="70.5" y="-41" font-family="Helvetica,sans-Serif" font-size="10.00"> value</text>
</g>
<!-- Node3 -->
<g id="node3" class="node">
<title>Node3</title>
<g id="a_node3"><a xlink:href="unionVCDValue_1_1valstore.html" target="_top" xlink:title="The actual value stored, as identified by type.">
<polygon fill="white" stroke="black" points="0,-134.5 0,-153.5 110,-153.5 110,-134.5 0,-134.5"/>
<text text-anchor="middle" x="55" y="-141.5" font-family="Helvetica,sans-Serif" font-size="10.00">VCDValue::valstore</text>
</a>
</g>
</g>
<!-- Node3&#45;&gt;Node2 -->
<g id="edge2" class="edge">
<title>Node3&#45;&gt;Node2</title>
<path fill="none" stroke="#9a32cd" stroke-dasharray="5,2" d="M55,-124.04C55,-111.67 55,-96.12 55,-86.63"/>
<polygon fill="#9a32cd" stroke="#9a32cd" points="51.5,-124.23 55,-134.23 58.5,-124.23 51.5,-124.23"/>
<text text-anchor="middle" x="70.5" y="-108" font-family="Helvetica,sans-Serif" font-size="10.00"> value</text>
</g>
</g>
</svg>
