<?xml version="1.0" encoding="UTF-8" standalone="no"?>
<!DOCTYPE svg PUBLIC "-//W3C//DTD SVG 1.1//EN"
 "http://www.w3.org/Graphics/SVG/1.1/DTD/svg11.dtd">
<!-- Generated by graphviz version 2.43.0 (0)
 -->
<!-- Title: src/VCDFileParser.hpp Pages: 1 -->
<svg width="278pt" height="84pt"
 viewBox="0.00 0.00 278.00 84.00" xmlns="http://www.w3.org/2000/svg" xmlns:xlink="http://www.w3.org/1999/xlink">
<g id="graph0" class="graph" transform="scale(1 1) rotate(0) translate(4 80)">
<title>src/VCDFileParser.hpp</title>
<polygon fill="white" stroke="transparent" points="-4,4 -4,-80 274,-80 274,4 -4,4"/>
<!-- Node1 -->
<g id="node1" class="node">
<title>Node1</title>
<g id="a_node1"><a xlink:title="Contains the declaration of the parser driver class.">
<polygon fill="#bfbfbf" stroke="black" points="72,-56.5 72,-75.5 194,-75.5 194,-56.5 72,-56.5"/>
<text text-anchor="middle" x="133" y="-63.5" font-family="Helvetica,sans-Serif" font-size="10.00">src/VCDFileParser.hpp</text>
</a>
</g>
</g>
<!-- Node2 -->
<g id="node2" class="node">
<title>Node2</title>
<g id="a_node2"><a xlink:href="VCDFileParser_8cpp.html" target="_top" xlink:title="Definition of the VCDFileParser class.">
<polygon fill="white" stroke="black" points="0,-0.5 0,-19.5 122,-19.5 122,-0.5 0,-0.5"/>
<text text-anchor="middle" x="61" y="-7.5" font-family="Helvetica,sans-Serif" font-size="10.00">src/VCDFileParser.cpp</text>
</a>
</g>
</g>
<!-- Node1&#45;&gt;Node2 -->
<g id="edge1" class="edge">
<title>Node1&#45;&gt;Node2</title>
<path fill="none" stroke="midnightblue" d="M113.13,-50.1C100.18,-40.38 83.7,-28.03 72.78,-19.83"/>
<polygon fill="midnightblue" stroke="midnightblue" points="111.33,-53.12 121.43,-56.32 115.53,-47.52 111.33,-53.12"/>
</g>
<!-- Node3 -->
<g id="node3" class="node">
<title>Node3</title>
<g id="a_node3"><a xlink:href="VCDStandalone_8cpp.html" target="_top" xlink:title="Definition of the VCDFileParser class.">
<polygon fill="white" stroke="black" points="140,-0.5 140,-19.5 270,-19.5 270,-0.5 140,-0.5"/>
<text text-anchor="middle" x="205" y="-7.5" font-family="Helvetica,sans-Serif" font-size="10.00">src/VCDStandalone.cpp</text>
</a>
</g>
</g>
<!-- Node1&#45;&gt;Node3 -->
<g id="edge2" class="edge">
<title>Node1&#45;&gt;Node3</title>
<path fill="none" stroke="midnightblue" d="M152.87,-50.1C165.82,-40.38 182.3,-28.03 193.22,-19.83"/>
<polygon fill="midnightblue" stroke="midnightblue" points="150.47,-47.52 144.57,-56.32 154.67,-53.12 150.47,-47.52"/>
</g>
</g>
</svg>
