<?xml version="1.0" encoding="UTF-8" standalone="no"?>
<!DOCTYPE svg PUBLIC "-//W3C//DTD SVG 1.1//EN"
 "http://www.w3.org/Graphics/SVG/1.1/DTD/svg11.dtd">
<!-- Generated by graphviz version 2.43.0 (0)
 -->
<!-- Title: src/VCDFile.hpp Pages: 1 -->
<svg width="316pt" height="140pt"
 viewBox="0.00 0.00 316.00 140.00" xmlns="http://www.w3.org/2000/svg" xmlns:xlink="http://www.w3.org/1999/xlink">
<g id="graph0" class="graph" transform="scale(1 1) rotate(0) translate(4 136)">
<title>src/VCDFile.hpp</title>
<polygon fill="white" stroke="transparent" points="-4,4 -4,-136 312,-136 312,4 -4,4"/>
<!-- Node1 -->
<g id="node1" class="node">
<title>Node1</title>
<g id="a_node1"><a xlink:title=" ">
<polygon fill="#bfbfbf" stroke="black" points="61.5,-112.5 61.5,-131.5 154.5,-131.5 154.5,-112.5 61.5,-112.5"/>
<text text-anchor="middle" x="108" y="-119.5" font-family="Helvetica,sans-Serif" font-size="10.00">src/VCDFile.hpp</text>
</a>
</g>
</g>
<!-- Node2 -->
<g id="node2" class="node">
<title>Node2</title>
<g id="a_node2"><a xlink:href="VCDFile_8cpp.html" target="_top" xlink:title=" ">
<polygon fill="white" stroke="black" points="0,-56.5 0,-75.5 92,-75.5 92,-56.5 0,-56.5"/>
<text text-anchor="middle" x="46" y="-63.5" font-family="Helvetica,sans-Serif" font-size="10.00">src/VCDFile.cpp</text>
</a>
</g>
</g>
<!-- Node1&#45;&gt;Node2 -->
<g id="edge1" class="edge">
<title>Node1&#45;&gt;Node2</title>
<path fill="none" stroke="midnightblue" d="M90.25,-105.54C79.19,-95.91 65.37,-83.87 56.14,-75.83"/>
<polygon fill="midnightblue" stroke="midnightblue" points="88.2,-108.4 98.04,-112.32 92.8,-103.12 88.2,-108.4"/>
</g>
<!-- Node3 -->
<g id="node3" class="node">
<title>Node3</title>
<g id="a_node3"><a xlink:href="VCDFileParser_8hpp.html" target="_top" xlink:title="Contains the declaration of the parser driver class.">
<polygon fill="white" stroke="black" points="110,-56.5 110,-75.5 232,-75.5 232,-56.5 110,-56.5"/>
<text text-anchor="middle" x="171" y="-63.5" font-family="Helvetica,sans-Serif" font-size="10.00">src/VCDFileParser.hpp</text>
</a>
</g>
</g>
<!-- Node1&#45;&gt;Node3 -->
<g id="edge2" class="edge">
<title>Node1&#45;&gt;Node3</title>
<path fill="none" stroke="midnightblue" d="M126.04,-105.54C137.27,-95.91 151.32,-83.87 160.69,-75.83"/>
<polygon fill="midnightblue" stroke="midnightblue" points="123.44,-103.16 118.12,-112.32 127.99,-108.47 123.44,-103.16"/>
</g>
<!-- Node4 -->
<g id="node4" class="node">
<title>Node4</title>
<g id="a_node4"><a xlink:href="VCDFileParser_8cpp.html" target="_top" xlink:title="Definition of the VCDFileParser class.">
<polygon fill="white" stroke="black" points="38,-0.5 38,-19.5 160,-19.5 160,-0.5 38,-0.5"/>
<text text-anchor="middle" x="99" y="-7.5" font-family="Helvetica,sans-Serif" font-size="10.00">src/VCDFileParser.cpp</text>
</a>
</g>
</g>
<!-- Node3&#45;&gt;Node4 -->
<g id="edge3" class="edge">
<title>Node3&#45;&gt;Node4</title>
<path fill="none" stroke="midnightblue" d="M151.13,-50.1C138.18,-40.38 121.7,-28.03 110.78,-19.83"/>
<polygon fill="midnightblue" stroke="midnightblue" points="149.33,-53.12 159.43,-56.32 153.53,-47.52 149.33,-53.12"/>
</g>
<!-- Node5 -->
<g id="node5" class="node">
<title>Node5</title>
<g id="a_node5"><a xlink:href="VCDStandalone_8cpp.html" target="_top" xlink:title="Definition of the VCDFileParser class.">
<polygon fill="white" stroke="black" points="178,-0.5 178,-19.5 308,-19.5 308,-0.5 178,-0.5"/>
<text text-anchor="middle" x="243" y="-7.5" font-family="Helvetica,sans-Serif" font-size="10.00">src/VCDStandalone.cpp</text>
</a>
</g>
</g>
<!-- Node3&#45;&gt;Node5 -->
<g id="edge4" class="edge">
<title>Node3&#45;&gt;Node5</title>
<path fill="none" stroke="midnightblue" d="M190.87,-50.1C203.82,-40.38 220.3,-28.03 231.22,-19.83"/>
<polygon fill="midnightblue" stroke="midnightblue" points="188.47,-47.52 182.57,-56.32 192.67,-53.12 188.47,-47.52"/>
</g>
</g>
</svg>
