<?xml version="1.0" encoding="UTF-8" standalone="no"?>
<!DOCTYPE svg PUBLIC "-//W3C//DTD SVG 1.1//EN"
 "http://www.w3.org/Graphics/SVG/1.1/DTD/svg11.dtd">
<!-- Generated by graphviz version 2.43.0 (0)
 -->
<!-- Title: src/VCDFileParser.hpp Pages: 1 -->
<svg width="637pt" height="252pt"
 viewBox="0.00 0.00 637.00 252.00" xmlns="http://www.w3.org/2000/svg" xmlns:xlink="http://www.w3.org/1999/xlink">
<g id="graph0" class="graph" transform="scale(1 1) rotate(0) translate(4 248)">
<title>src/VCDFileParser.hpp</title>
<polygon fill="white" stroke="transparent" points="-4,4 -4,-248 633,-248 633,4 -4,4"/>
<!-- Node1 -->
<g id="node1" class="node">
<title>Node1</title>
<g id="a_node1"><a xlink:title="Contains the declaration of the parser driver class.">
<polygon fill="#bfbfbf" stroke="black" points="300,-224.5 300,-243.5 422,-243.5 422,-224.5 300,-224.5"/>
<text text-anchor="middle" x="361" y="-231.5" font-family="Helvetica,sans-Serif" font-size="10.00">src/VCDFileParser.hpp</text>
</a>
</g>
</g>
<!-- Node2 -->
<g id="node2" class="node">
<title>Node2</title>
<g id="a_node2"><a xlink:title=" ">
<polygon fill="white" stroke="#bfbfbf" points="0,-0.5 0,-19.5 44,-19.5 44,-0.5 0,-0.5"/>
<text text-anchor="middle" x="22" y="-7.5" font-family="Helvetica,sans-Serif" font-size="10.00">string</text>
</a>
</g>
</g>
<!-- Node1&#45;&gt;Node2 -->
<g id="edge1" class="edge">
<title>Node1&#45;&gt;Node2</title>
<path fill="none" stroke="midnightblue" d="M299.74,-227.76C254.53,-222.18 192.39,-210.82 142,-188 79.57,-159.73 60.51,-140.01 36,-76 30.25,-60.99 26.62,-43.08 24.49,-29.87"/>
<polygon fill="midnightblue" stroke="midnightblue" points="27.91,-29.04 23,-19.65 20.98,-30.05 27.91,-29.04"/>
</g>
<!-- Node3 -->
<g id="node3" class="node">
<title>Node3</title>
<g id="a_node3"><a xlink:title=" ">
<polygon fill="white" stroke="#bfbfbf" points="256,-0.5 256,-19.5 294,-19.5 294,-0.5 256,-0.5"/>
<text text-anchor="middle" x="275" y="-7.5" font-family="Helvetica,sans-Serif" font-size="10.00">map</text>
</a>
</g>
</g>
<!-- Node1&#45;&gt;Node3 -->
<g id="edge2" class="edge">
<title>Node1&#45;&gt;Node3</title>
<path fill="none" stroke="midnightblue" d="M357.63,-224.3C344.92,-191.49 299.75,-74.88 282.12,-29.38"/>
<polygon fill="midnightblue" stroke="midnightblue" points="285.32,-27.94 278.44,-19.88 278.79,-30.47 285.32,-27.94"/>
</g>
<!-- Node4 -->
<g id="node4" class="node">
<title>Node4</title>
<g id="a_node4"><a xlink:title=" ">
<polygon fill="white" stroke="#bfbfbf" points="367,-168.5 367,-187.5 399,-187.5 399,-168.5 367,-168.5"/>
<text text-anchor="middle" x="383" y="-175.5" font-family="Helvetica,sans-Serif" font-size="10.00">set</text>
</a>
</g>
</g>
<!-- Node1&#45;&gt;Node4 -->
<g id="edge3" class="edge">
<title>Node1&#45;&gt;Node4</title>
<path fill="none" stroke="midnightblue" d="M364.63,-224.08C367.61,-216.77 371.93,-206.18 375.62,-197.1"/>
<polygon fill="midnightblue" stroke="midnightblue" points="378.9,-198.33 379.43,-187.75 372.42,-195.69 378.9,-198.33"/>
</g>
<!-- Node5 -->
<g id="node5" class="node">
<title>Node5</title>
<g id="a_node5"><a xlink:title=" ">
<polygon fill="white" stroke="#bfbfbf" points="417.5,-168.5 417.5,-187.5 460.5,-187.5 460.5,-168.5 417.5,-168.5"/>
<text text-anchor="middle" x="439" y="-175.5" font-family="Helvetica,sans-Serif" font-size="10.00">stack</text>
</a>
</g>
</g>
<!-- Node1&#45;&gt;Node5 -->
<g id="edge4" class="edge">
<title>Node1&#45;&gt;Node5</title>
<path fill="none" stroke="midnightblue" d="M373.53,-224.32C385.59,-215.98 404.03,-203.21 418.27,-193.35"/>
<polygon fill="midnightblue" stroke="midnightblue" points="420.27,-196.22 426.5,-187.65 416.28,-190.47 420.27,-196.22"/>
</g>
<!-- Node6 -->
<g id="node6" class="node">
<title>Node6</title>
<g id="a_node6"><a xlink:title=" ">
<polygon fill="white" stroke="#bfbfbf" points="479,-168.5 479,-187.5 523,-187.5 523,-168.5 479,-168.5"/>
<text text-anchor="middle" x="501" y="-175.5" font-family="Helvetica,sans-Serif" font-size="10.00">limits</text>
</a>
</g>
</g>
<!-- Node1&#45;&gt;Node6 -->
<g id="edge5" class="edge">
<title>Node1&#45;&gt;Node6</title>
<path fill="none" stroke="midnightblue" d="M383.18,-224.44C406.43,-215.48 443.15,-201.31 469.42,-191.18"/>
<polygon fill="midnightblue" stroke="midnightblue" points="470.85,-194.38 478.92,-187.52 468.33,-187.85 470.85,-194.38"/>
</g>
<!-- Node7 -->
<g id="node7" class="node">
<title>Node7</title>
<g id="a_node7"><a xlink:title=" ">
<polygon fill="white" stroke="#bfbfbf" points="541,-168.5 541,-187.5 629,-187.5 629,-168.5 541,-168.5"/>
<text text-anchor="middle" x="585" y="-175.5" font-family="Helvetica,sans-Serif" font-size="10.00">VCDParser.hpp</text>
</a>
</g>
</g>
<!-- Node1&#45;&gt;Node7 -->
<g id="edge6" class="edge">
<title>Node1&#45;&gt;Node7</title>
<path fill="none" stroke="midnightblue" d="M396.49,-224.44C435.32,-215.08 497.66,-200.06 539.92,-189.87"/>
<polygon fill="midnightblue" stroke="midnightblue" points="540.77,-193.26 549.67,-187.52 539.13,-186.46 540.77,-193.26"/>
</g>
<!-- Node8 -->
<g id="node8" class="node">
<title>Node8</title>
<g id="a_node8"><a xlink:href="VCDTypes_8hpp.html" target="_top" xlink:title="A file for common types and data structures used by the VCD parser.">
<polygon fill="white" stroke="black" points="130,-56.5 130,-75.5 216,-75.5 216,-56.5 130,-56.5"/>
<text text-anchor="middle" x="173" y="-63.5" font-family="Helvetica,sans-Serif" font-size="10.00">VCDTypes.hpp</text>
</a>
</g>
</g>
<!-- Node1&#45;&gt;Node8 -->
<g id="edge7" class="edge">
<title>Node1&#45;&gt;Node8</title>
<path fill="none" stroke="midnightblue" d="M351.16,-224.31C320.95,-197.64 229.3,-116.72 190.58,-82.52"/>
<polygon fill="midnightblue" stroke="midnightblue" points="192.56,-79.6 182.75,-75.61 187.93,-84.85 192.56,-79.6"/>
</g>
<!-- Node12 -->
<g id="node12" class="node">
<title>Node12</title>
<g id="a_node12"><a xlink:href="VCDFile_8hpp.html" target="_top" xlink:title=" ">
<polygon fill="white" stroke="black" points="151,-168.5 151,-187.5 227,-187.5 227,-168.5 151,-168.5"/>
<text text-anchor="middle" x="189" y="-175.5" font-family="Helvetica,sans-Serif" font-size="10.00">VCDFile.hpp</text>
</a>
</g>
</g>
<!-- Node1&#45;&gt;Node12 -->
<g id="edge13" class="edge">
<title>Node1&#45;&gt;Node12</title>
<path fill="none" stroke="midnightblue" d="M333.75,-224.44C304.56,-215.28 258.08,-200.69 225.69,-190.52"/>
<polygon fill="midnightblue" stroke="midnightblue" points="226.72,-187.17 216.13,-187.52 224.62,-193.85 226.72,-187.17"/>
</g>
<!-- Node8&#45;&gt;Node2 -->
<g id="edge10" class="edge">
<title>Node8&#45;&gt;Node2</title>
<path fill="none" stroke="midnightblue" d="M149.07,-56.44C123.33,-47.24 82.28,-32.56 53.83,-22.38"/>
<polygon fill="midnightblue" stroke="midnightblue" points="54.93,-19.06 44.34,-18.99 52.58,-25.65 54.93,-19.06"/>
</g>
<!-- Node8&#45;&gt;Node3 -->
<g id="edge8" class="edge">
<title>Node8&#45;&gt;Node3</title>
<path fill="none" stroke="midnightblue" d="M189.39,-56.32C205.67,-47.7 230.87,-34.36 249.72,-24.39"/>
<polygon fill="midnightblue" stroke="midnightblue" points="251.45,-27.43 258.65,-19.65 248.18,-21.24 251.45,-27.43"/>
</g>
<!-- Node9 -->
<g id="node9" class="node">
<title>Node9</title>
<g id="a_node9"><a xlink:title=" ">
<polygon fill="white" stroke="#bfbfbf" points="127.5,-0.5 127.5,-19.5 172.5,-19.5 172.5,-0.5 127.5,-0.5"/>
<text text-anchor="middle" x="150" y="-7.5" font-family="Helvetica,sans-Serif" font-size="10.00">utility</text>
</a>
</g>
</g>
<!-- Node8&#45;&gt;Node9 -->
<g id="edge9" class="edge">
<title>Node8&#45;&gt;Node9</title>
<path fill="none" stroke="midnightblue" d="M169.2,-56.08C166.09,-48.77 161.58,-38.18 157.71,-29.1"/>
<polygon fill="midnightblue" stroke="midnightblue" points="160.87,-27.58 153.73,-19.75 154.43,-30.32 160.87,-27.58"/>
</g>
<!-- Node10 -->
<g id="node10" class="node">
<title>Node10</title>
<g id="a_node10"><a xlink:title=" ">
<polygon fill="white" stroke="#bfbfbf" points="62.5,-0.5 62.5,-19.5 109.5,-19.5 109.5,-0.5 62.5,-0.5"/>
<text text-anchor="middle" x="86" y="-7.5" font-family="Helvetica,sans-Serif" font-size="10.00">vector</text>
</a>
</g>
</g>
<!-- Node8&#45;&gt;Node10 -->
<g id="edge11" class="edge">
<title>Node8&#45;&gt;Node10</title>
<path fill="none" stroke="midnightblue" d="M159.02,-56.32C145.45,-47.9 124.62,-34.97 108.68,-25.07"/>
<polygon fill="midnightblue" stroke="midnightblue" points="110.29,-21.95 99.94,-19.65 106.59,-27.9 110.29,-21.95"/>
</g>
<!-- Node11 -->
<g id="node11" class="node">
<title>Node11</title>
<g id="a_node11"><a xlink:title=" ">
<polygon fill="white" stroke="#bfbfbf" points="190.5,-0.5 190.5,-19.5 237.5,-19.5 237.5,-0.5 190.5,-0.5"/>
<text text-anchor="middle" x="214" y="-7.5" font-family="Helvetica,sans-Serif" font-size="10.00">deque</text>
</a>
</g>
</g>
<!-- Node8&#45;&gt;Node11 -->
<g id="edge12" class="edge">
<title>Node8&#45;&gt;Node11</title>
<path fill="none" stroke="midnightblue" d="M179.77,-56.08C185.56,-48.46 194.06,-37.26 201.14,-27.94"/>
<polygon fill="midnightblue" stroke="midnightblue" points="204.1,-29.83 207.36,-19.75 198.52,-25.6 204.1,-29.83"/>
</g>
<!-- Node12&#45;&gt;Node2 -->
<g id="edge15" class="edge">
<title>Node12&#45;&gt;Node2</title>
<path fill="none" stroke="midnightblue" d="M157.17,-168.47C135.88,-161.48 108.33,-149.79 89,-132 57.31,-102.83 37.13,-55.13 27.9,-29.19"/>
<polygon fill="midnightblue" stroke="midnightblue" points="31.14,-27.86 24.61,-19.52 24.51,-30.12 31.14,-27.86"/>
</g>
<!-- Node12&#45;&gt;Node3 -->
<g id="edge14" class="edge">
<title>Node12&#45;&gt;Node3</title>
<path fill="none" stroke="midnightblue" d="M195.92,-168.38C202.79,-159.57 213.39,-145.32 221,-132 240.89,-97.18 258.73,-53.68 268.09,-29.47"/>
<polygon fill="midnightblue" stroke="midnightblue" points="271.48,-30.39 271.77,-19.8 264.94,-27.9 271.48,-30.39"/>
</g>
<!-- Node12&#45;&gt;Node8 -->
<g id="edge17" class="edge">
<title>Node12&#45;&gt;Node8</title>
<path fill="none" stroke="midnightblue" d="M194.33,-168.49C201.47,-155.98 212.53,-131.95 206,-112 202.51,-101.34 195.43,-91.12 188.71,-83.12"/>
<polygon fill="midnightblue" stroke="midnightblue" points="191.3,-80.76 182.02,-75.66 186.1,-85.44 191.3,-80.76"/>
</g>
<!-- Node12&#45;&gt;Node10 -->
<g id="edge16" class="edge">
<title>Node12&#45;&gt;Node10</title>
<path fill="none" stroke="midnightblue" d="M156.62,-168.48C137.63,-161.76 114.9,-150.37 102,-132 80.45,-101.33 81.04,-55.26 83.47,-29.73"/>
<polygon fill="midnightblue" stroke="midnightblue" points="86.97,-29.91 84.64,-19.57 80.02,-29.11 86.97,-29.91"/>
</g>
<!-- Node13 -->
<g id="node13" class="node">
<title>Node13</title>
<g id="a_node13"><a xlink:href="VCDValue_8hpp.html" target="_top" xlink:title=" ">
<polygon fill="white" stroke="black" points="111,-112.5 111,-131.5 197,-131.5 197,-112.5 111,-112.5"/>
<text text-anchor="middle" x="154" y="-119.5" font-family="Helvetica,sans-Serif" font-size="10.00">VCDValue.hpp</text>
</a>
</g>
</g>
<!-- Node12&#45;&gt;Node13 -->
<g id="edge18" class="edge">
<title>Node12&#45;&gt;Node13</title>
<path fill="none" stroke="midnightblue" d="M183.22,-168.08C178.33,-160.53 171.17,-149.49 165.17,-140.23"/>
<polygon fill="midnightblue" stroke="midnightblue" points="168.05,-138.24 159.67,-131.75 162.17,-142.05 168.05,-138.24"/>
</g>
<!-- Node13&#45;&gt;Node8 -->
<g id="edge19" class="edge">
<title>Node13&#45;&gt;Node8</title>
<path fill="none" stroke="midnightblue" d="M157.14,-112.08C159.68,-104.85 163.36,-94.41 166.53,-85.4"/>
<polygon fill="midnightblue" stroke="midnightblue" points="169.9,-86.35 169.92,-75.75 163.3,-84.02 169.9,-86.35"/>
</g>
</g>
</svg>
