<?xml version="1.0" encoding="UTF-8" standalone="no"?>
<!DOCTYPE svg PUBLIC "-//W3C//DTD SVG 1.1//EN"
 "http://www.w3.org/Graphics/SVG/1.1/DTD/svg11.dtd">
<!-- Generated by graphviz version 2.43.0 (0)
 -->
<!-- Title: src/VCDFile.hpp Pages: 1 -->
<svg width="303pt" height="196pt"
 viewBox="0.00 0.00 302.50 196.00" xmlns="http://www.w3.org/2000/svg" xmlns:xlink="http://www.w3.org/1999/xlink">
<g id="graph0" class="graph" transform="scale(1 1) rotate(0) translate(4 192)">
<title>src/VCDFile.hpp</title>
<polygon fill="white" stroke="transparent" points="-4,4 -4,-192 298.5,-192 298.5,4 -4,4"/>
<!-- Node1 -->
<g id="node1" class="node">
<title>Node1</title>
<g id="a_node1"><a xlink:title=" ">
<polygon fill="#bfbfbf" stroke="black" points="126.5,-168.5 126.5,-187.5 219.5,-187.5 219.5,-168.5 126.5,-168.5"/>
<text text-anchor="middle" x="173" y="-175.5" font-family="Helvetica,sans-Serif" font-size="10.00">src/VCDFile.hpp</text>
</a>
</g>
</g>
<!-- Node2 -->
<g id="node2" class="node">
<title>Node2</title>
<g id="a_node2"><a xlink:title=" ">
<polygon fill="white" stroke="#bfbfbf" points="0,-0.5 0,-19.5 38,-19.5 38,-0.5 0,-0.5"/>
<text text-anchor="middle" x="19" y="-7.5" font-family="Helvetica,sans-Serif" font-size="10.00">map</text>
</a>
</g>
</g>
<!-- Node1&#45;&gt;Node2 -->
<g id="edge1" class="edge">
<title>Node1&#45;&gt;Node2</title>
<path fill="none" stroke="midnightblue" d="M126.45,-170.76C100.52,-164.92 69.6,-153.67 50,-132 24.02,-103.28 19.2,-55.75 18.66,-29.63"/>
<polygon fill="midnightblue" stroke="midnightblue" points="22.16,-29.56 18.65,-19.57 15.16,-29.57 22.16,-29.56"/>
</g>
<!-- Node3 -->
<g id="node3" class="node">
<title>Node3</title>
<g id="a_node3"><a xlink:title=" ">
<polygon fill="white" stroke="#bfbfbf" points="185,-0.5 185,-19.5 229,-19.5 229,-0.5 185,-0.5"/>
<text text-anchor="middle" x="207" y="-7.5" font-family="Helvetica,sans-Serif" font-size="10.00">string</text>
</a>
</g>
</g>
<!-- Node1&#45;&gt;Node3 -->
<g id="edge2" class="edge">
<title>Node1&#45;&gt;Node3</title>
<path fill="none" stroke="midnightblue" d="M174.83,-168.08C180.18,-141.95 195.9,-65.21 203.2,-29.58"/>
<polygon fill="midnightblue" stroke="midnightblue" points="206.67,-30.07 205.25,-19.57 199.81,-28.66 206.67,-30.07"/>
</g>
<!-- Node4 -->
<g id="node4" class="node">
<title>Node4</title>
<g id="a_node4"><a xlink:title=" ">
<polygon fill="white" stroke="#bfbfbf" points="247.5,-0.5 247.5,-19.5 294.5,-19.5 294.5,-0.5 247.5,-0.5"/>
<text text-anchor="middle" x="271" y="-7.5" font-family="Helvetica,sans-Serif" font-size="10.00">vector</text>
</a>
</g>
</g>
<!-- Node1&#45;&gt;Node4 -->
<g id="edge3" class="edge">
<title>Node1&#45;&gt;Node4</title>
<path fill="none" stroke="midnightblue" d="M178.27,-168.08C193.9,-141.61 240.18,-63.21 260.84,-28.21"/>
<polygon fill="midnightblue" stroke="midnightblue" points="263.87,-29.96 265.94,-19.57 257.84,-26.4 263.87,-29.96"/>
</g>
<!-- Node5 -->
<g id="node5" class="node">
<title>Node5</title>
<g id="a_node5"><a xlink:href="VCDTypes_8hpp.html" target="_top" xlink:title="A file for common types and data structures used by the VCD parser.">
<polygon fill="white" stroke="black" points="97,-56.5 97,-75.5 183,-75.5 183,-56.5 97,-56.5"/>
<text text-anchor="middle" x="140" y="-63.5" font-family="Helvetica,sans-Serif" font-size="10.00">VCDTypes.hpp</text>
</a>
</g>
</g>
<!-- Node1&#45;&gt;Node5 -->
<g id="edge4" class="edge">
<title>Node1&#45;&gt;Node5</title>
<path fill="none" stroke="midnightblue" d="M170.47,-168.15C166.87,-155.63 160.04,-132.04 154,-112 151.34,-103.18 148.31,-93.41 145.75,-85.23"/>
<polygon fill="midnightblue" stroke="midnightblue" points="149.06,-84.1 142.73,-75.61 142.39,-86.2 149.06,-84.1"/>
</g>
<!-- Node8 -->
<g id="node8" class="node">
<title>Node8</title>
<g id="a_node8"><a xlink:href="VCDValue_8hpp.html" target="_top" xlink:title=" ">
<polygon fill="white" stroke="black" points="59,-112.5 59,-131.5 145,-131.5 145,-112.5 59,-112.5"/>
<text text-anchor="middle" x="102" y="-119.5" font-family="Helvetica,sans-Serif" font-size="10.00">VCDValue.hpp</text>
</a>
</g>
</g>
<!-- Node1&#45;&gt;Node8 -->
<g id="edge10" class="edge">
<title>Node1&#45;&gt;Node8</title>
<path fill="none" stroke="midnightblue" d="M161.59,-168.32C150.89,-160.18 134.66,-147.84 121.84,-138.09"/>
<polygon fill="midnightblue" stroke="midnightblue" points="123.69,-135.1 113.61,-131.83 119.46,-140.67 123.69,-135.1"/>
</g>
<!-- Node5&#45;&gt;Node2 -->
<g id="edge5" class="edge">
<title>Node5&#45;&gt;Node2</title>
<path fill="none" stroke="midnightblue" d="M120.83,-56.44C101.09,-47.64 70.11,-33.81 47.51,-23.72"/>
<polygon fill="midnightblue" stroke="midnightblue" points="48.64,-20.4 38.08,-19.52 45.79,-26.79 48.64,-20.4"/>
</g>
<!-- Node5&#45;&gt;Node3 -->
<g id="edge7" class="edge">
<title>Node5&#45;&gt;Node3</title>
<path fill="none" stroke="midnightblue" d="M150.76,-56.32C160.77,-48.26 175.89,-36.08 187.93,-26.37"/>
<polygon fill="midnightblue" stroke="midnightblue" points="190.45,-28.83 196.04,-19.83 186.06,-23.38 190.45,-28.83"/>
</g>
<!-- Node5&#45;&gt;Node4 -->
<g id="edge8" class="edge">
<title>Node5&#45;&gt;Node4</title>
<path fill="none" stroke="midnightblue" d="M160.76,-56.44C182.32,-47.56 216.26,-33.56 240.79,-23.45"/>
<polygon fill="midnightblue" stroke="midnightblue" points="242.43,-26.56 250.34,-19.52 239.76,-20.09 242.43,-26.56"/>
</g>
<!-- Node6 -->
<g id="node6" class="node">
<title>Node6</title>
<g id="a_node6"><a xlink:title=" ">
<polygon fill="white" stroke="#bfbfbf" points="121.5,-0.5 121.5,-19.5 166.5,-19.5 166.5,-0.5 121.5,-0.5"/>
<text text-anchor="middle" x="144" y="-7.5" font-family="Helvetica,sans-Serif" font-size="10.00">utility</text>
</a>
</g>
</g>
<!-- Node5&#45;&gt;Node6 -->
<g id="edge6" class="edge">
<title>Node5&#45;&gt;Node6</title>
<path fill="none" stroke="midnightblue" d="M140.66,-56.08C141.18,-49.01 141.94,-38.86 142.59,-29.99"/>
<polygon fill="midnightblue" stroke="midnightblue" points="146.1,-29.98 143.35,-19.75 139.12,-29.47 146.1,-29.98"/>
</g>
<!-- Node7 -->
<g id="node7" class="node">
<title>Node7</title>
<g id="a_node7"><a xlink:title=" ">
<polygon fill="white" stroke="#bfbfbf" points="56.5,-0.5 56.5,-19.5 103.5,-19.5 103.5,-0.5 56.5,-0.5"/>
<text text-anchor="middle" x="80" y="-7.5" font-family="Helvetica,sans-Serif" font-size="10.00">deque</text>
</a>
</g>
</g>
<!-- Node5&#45;&gt;Node7 -->
<g id="edge9" class="edge">
<title>Node5&#45;&gt;Node7</title>
<path fill="none" stroke="midnightblue" d="M130.36,-56.32C121.49,-48.34 108.13,-36.31 97.39,-26.65"/>
<polygon fill="midnightblue" stroke="midnightblue" points="99.59,-23.92 89.82,-19.83 94.91,-29.13 99.59,-23.92"/>
</g>
<!-- Node8&#45;&gt;Node5 -->
<g id="edge11" class="edge">
<title>Node8&#45;&gt;Node5</title>
<path fill="none" stroke="midnightblue" d="M108.27,-112.08C113.64,-104.46 121.52,-93.26 128.08,-83.94"/>
<polygon fill="midnightblue" stroke="midnightblue" points="130.95,-85.94 133.84,-75.75 125.22,-81.91 130.95,-85.94"/>
</g>
</g>
</svg>
