<?xml version="1.0" encoding="UTF-8" standalone="no"?>
<!DOCTYPE svg PUBLIC "-//W3C//DTD SVG 1.1//EN"
 "http://www.w3.org/Graphics/SVG/1.1/DTD/svg11.dtd">
<!-- Generated by graphviz version 2.43.0 (0)
 -->
<!-- Title: main Pages: 1 -->
<svg width="396pt" height="94pt"
 viewBox="0.00 0.00 396.00 93.50" xmlns="http://www.w3.org/2000/svg" xmlns:xlink="http://www.w3.org/1999/xlink">
<g id="graph0" class="graph" transform="scale(1 1) rotate(0) translate(4 89.5)">
<title>main</title>
<polygon fill="white" stroke="transparent" points="-4,4 -4,-89.5 392,-89.5 392,4 -4,4"/>
<!-- Node1 -->
<g id="node1" class="node">
<title>Node1</title>
<g id="a_node1"><a xlink:title="Standalone test function to allow testing of the VCD file parser.">
<polygon fill="#bfbfbf" stroke="black" points="0,-19.5 0,-38.5 41,-38.5 41,-19.5 0,-19.5"/>
<text text-anchor="middle" x="20.5" y="-26.5" font-family="Helvetica,sans-Serif" font-size="10.00">main</text>
</a>
</g>
</g>
<!-- Node2 -->
<g id="node2" class="node">
<title>Node2</title>
<g id="a_node2"><a xlink:href="classVCDFileParser.html#a2733fcd933090ee0cde34adb098abc99" target="_top" xlink:title="Parse the suppled file.">
<polygon fill="white" stroke="black" points="77,-38.5 77,-57.5 215,-57.5 215,-38.5 77,-38.5"/>
<text text-anchor="middle" x="146" y="-45.5" font-family="Helvetica,sans-Serif" font-size="10.00">VCDFileParser::parse_file</text>
</a>
</g>
</g>
<!-- Node1&#45;&gt;Node2 -->
<g id="edge1" class="edge">
<title>Node1&#45;&gt;Node2</title>
<path fill="none" stroke="midnightblue" d="M41.07,-32.01C50.05,-33.39 61.31,-35.12 73.08,-36.93"/>
<polygon fill="midnightblue" stroke="midnightblue" points="72.62,-40.41 83.04,-38.47 73.69,-33.49 72.62,-40.41"/>
</g>
<!-- Node5 -->
<g id="node5" class="node">
<title>Node5</title>
<g id="a_node5"><a xlink:href="classVCDValue.html#a348d184d7a4750ff45d8dea0f6a834ae" target="_top" xlink:title="Convert a VCDBit to a single char.">
<polygon fill="white" stroke="black" points="79,-0.5 79,-19.5 213,-19.5 213,-0.5 79,-0.5"/>
<text text-anchor="middle" x="146" y="-7.5" font-family="Helvetica,sans-Serif" font-size="10.00">VCDValue::VCDBit2Char</text>
</a>
</g>
</g>
<!-- Node1&#45;&gt;Node5 -->
<g id="edge4" class="edge">
<title>Node1&#45;&gt;Node5</title>
<path fill="none" stroke="midnightblue" d="M41.07,-25.99C50.05,-24.61 61.31,-22.88 73.08,-21.07"/>
<polygon fill="midnightblue" stroke="midnightblue" points="73.69,-24.51 83.04,-19.53 72.62,-17.59 73.69,-24.51"/>
</g>
<!-- Node3 -->
<g id="node3" class="node">
<title>Node3</title>
<g id="a_node3"><a xlink:href="classVCDFileParser.html#a6495a1e0de0f322ac71687bbd2e8c76a" target="_top" xlink:title="Utility function for starting parsing.">
<polygon fill="white" stroke="black" points="263,-55 263,-85 376,-85 376,-55 263,-55"/>
<text text-anchor="start" x="271" y="-73" font-family="Helvetica,sans-Serif" font-size="10.00">VCDFileParser::scan</text>
<text text-anchor="middle" x="319.5" y="-62" font-family="Helvetica,sans-Serif" font-size="10.00">_begin</text>
</a>
</g>
</g>
<!-- Node2&#45;&gt;Node3 -->
<g id="edge2" class="edge">
<title>Node2&#45;&gt;Node3</title>
<path fill="none" stroke="midnightblue" d="M215.27,-56.76C227.61,-58.34 240.44,-59.99 252.7,-61.56"/>
<polygon fill="midnightblue" stroke="midnightblue" points="252.48,-65.06 262.84,-62.86 253.37,-58.12 252.48,-65.06"/>
</g>
<!-- Node4 -->
<g id="node4" class="node">
<title>Node4</title>
<g id="a_node4"><a xlink:href="classVCDFileParser.html#af21ecc8d90a462c98d97b4ab3aa303db" target="_top" xlink:title="Utility function for stopping parsing.">
<polygon fill="white" stroke="black" points="251,-16.5 251,-35.5 388,-35.5 388,-16.5 251,-16.5"/>
<text text-anchor="middle" x="319.5" y="-23.5" font-family="Helvetica,sans-Serif" font-size="10.00">VCDFileParser::scan_end</text>
</a>
</g>
</g>
<!-- Node2&#45;&gt;Node4 -->
<g id="edge3" class="edge">
<title>Node2&#45;&gt;Node4</title>
<path fill="none" stroke="midnightblue" d="M215.27,-39.24C223.67,-38.17 232.29,-37.06 240.81,-35.97"/>
<polygon fill="midnightblue" stroke="midnightblue" points="241.27,-39.44 250.74,-34.69 240.38,-32.49 241.27,-39.44"/>
</g>
</g>
</svg>
