<?xml version="1.0" encoding="UTF-8" standalone="no"?>
<!DOCTYPE svg PUBLIC "-//W3C//DTD SVG 1.1//EN"
 "http://www.w3.org/Graphics/SVG/1.1/DTD/svg11.dtd">
<!-- Generated by graphviz version 2.43.0 (0)
 -->
<!-- Title: src/VCDStandalone.cpp Pages: 1 -->
<svg width="434pt" height="308pt"
 viewBox="0.00 0.00 433.85 308.00" xmlns="http://www.w3.org/2000/svg" xmlns:xlink="http://www.w3.org/1999/xlink">
<g id="graph0" class="graph" transform="scale(1 1) rotate(0) translate(4 304)">
<title>src/VCDStandalone.cpp</title>
<polygon fill="white" stroke="transparent" points="-4,4 -4,-304 429.85,-304 429.85,4 -4,4"/>
<!-- Node1 -->
<g id="node1" class="node">
<title>Node1</title>
<g id="a_node1"><a xlink:title="Definition of the VCDFileParser class.">
<polygon fill="#bfbfbf" stroke="black" points="295.85,-280.5 295.85,-299.5 425.85,-299.5 425.85,-280.5 295.85,-280.5"/>
<text text-anchor="middle" x="360.85" y="-287.5" font-family="Helvetica,sans-Serif" font-size="10.00">src/VCDStandalone.cpp</text>
</a>
</g>
</g>
<!-- Node2 -->
<g id="node2" class="node">
<title>Node2</title>
<g id="a_node2"><a xlink:href="VCDFileParser_8hpp.html" target="_top" xlink:title="Contains the declaration of the parser driver class.">
<polygon fill="white" stroke="black" points="187.35,-224.5 187.35,-243.5 292.35,-243.5 292.35,-224.5 187.35,-224.5"/>
<text text-anchor="middle" x="239.85" y="-231.5" font-family="Helvetica,sans-Serif" font-size="10.00">VCDFileParser.hpp</text>
</a>
</g>
</g>
<!-- Node1&#45;&gt;Node2 -->
<g id="edge1" class="edge">
<title>Node1&#45;&gt;Node2</title>
<path fill="none" stroke="midnightblue" d="M341.67,-280.44C321.94,-271.64 290.96,-257.81 268.35,-247.72"/>
<polygon fill="midnightblue" stroke="midnightblue" points="269.49,-244.4 258.93,-243.52 266.63,-250.79 269.49,-244.4"/>
</g>
<!-- Node14 -->
<g id="node14" class="node">
<title>Node14</title>
<g id="a_node14"><a xlink:href="VCDValue_8hpp.html" target="_top" xlink:title=" ">
<polygon fill="white" stroke="black" points="253.85,-112.5 253.85,-131.5 339.85,-131.5 339.85,-112.5 253.85,-112.5"/>
<text text-anchor="middle" x="296.85" y="-119.5" font-family="Helvetica,sans-Serif" font-size="10.00">VCDValue.hpp</text>
</a>
</g>
</g>
<!-- Node1&#45;&gt;Node14 -->
<g id="edge21" class="edge">
<title>Node1&#45;&gt;Node14</title>
<path fill="none" stroke="midnightblue" d="M366.68,-280.36C379.99,-259.45 409.78,-205.1 386.85,-168 377.17,-152.35 360.22,-141.96 343.62,-135.15"/>
<polygon fill="midnightblue" stroke="midnightblue" points="344.54,-131.76 333.95,-131.54 342.09,-138.32 344.54,-131.76"/>
</g>
<!-- Node3 -->
<g id="node3" class="node">
<title>Node3</title>
<g id="a_node3"><a xlink:title=" ">
<polygon fill="white" stroke="#bfbfbf" points="363.85,-0.5 363.85,-19.5 407.85,-19.5 407.85,-0.5 363.85,-0.5"/>
<text text-anchor="middle" x="385.85" y="-7.5" font-family="Helvetica,sans-Serif" font-size="10.00">string</text>
</a>
</g>
</g>
<!-- Node2&#45;&gt;Node3 -->
<g id="edge2" class="edge">
<title>Node2&#45;&gt;Node3</title>
<path fill="none" stroke="midnightblue" d="M292.74,-225.52C335.34,-218.28 390.28,-205.78 403.85,-188 440,-140.59 411.4,-64.04 395.14,-29.25"/>
<polygon fill="midnightblue" stroke="midnightblue" points="398.1,-27.34 390.57,-19.88 391.8,-30.4 398.1,-27.34"/>
</g>
<!-- Node4 -->
<g id="node4" class="node">
<title>Node4</title>
<g id="a_node4"><a xlink:title=" ">
<polygon fill="white" stroke="#bfbfbf" points="113.85,-0.5 113.85,-19.5 151.85,-19.5 151.85,-0.5 113.85,-0.5"/>
<text text-anchor="middle" x="132.85" y="-7.5" font-family="Helvetica,sans-Serif" font-size="10.00">map</text>
</a>
</g>
</g>
<!-- Node2&#45;&gt;Node4 -->
<g id="edge3" class="edge">
<title>Node2&#45;&gt;Node4</title>
<path fill="none" stroke="midnightblue" d="M187.28,-230.09C127.24,-225.54 34.49,-214.35 12.85,-188 -33.87,-131.11 63.77,-56.16 110.17,-25.26"/>
<polygon fill="midnightblue" stroke="midnightblue" points="112.25,-28.08 118.71,-19.68 108.42,-22.22 112.25,-28.08"/>
</g>
<!-- Node5 -->
<g id="node5" class="node">
<title>Node5</title>
<g id="a_node5"><a xlink:title=" ">
<polygon fill="white" stroke="#bfbfbf" points="21.85,-168.5 21.85,-187.5 53.85,-187.5 53.85,-168.5 21.85,-168.5"/>
<text text-anchor="middle" x="37.85" y="-175.5" font-family="Helvetica,sans-Serif" font-size="10.00">set</text>
</a>
</g>
</g>
<!-- Node2&#45;&gt;Node5 -->
<g id="edge4" class="edge">
<title>Node2&#45;&gt;Node5</title>
<path fill="none" stroke="midnightblue" d="M201.92,-224.48C167.92,-216.59 116.52,-204.06 63.48,-187.97"/>
<polygon fill="midnightblue" stroke="midnightblue" points="64.49,-184.63 53.91,-185.04 62.44,-191.32 64.49,-184.63"/>
</g>
<!-- Node6 -->
<g id="node6" class="node">
<title>Node6</title>
<g id="a_node6"><a xlink:title=" ">
<polygon fill="white" stroke="#bfbfbf" points="72.35,-168.5 72.35,-187.5 115.35,-187.5 115.35,-168.5 72.35,-168.5"/>
<text text-anchor="middle" x="93.85" y="-175.5" font-family="Helvetica,sans-Serif" font-size="10.00">stack</text>
</a>
</g>
</g>
<!-- Node2&#45;&gt;Node6 -->
<g id="edge5" class="edge">
<title>Node2&#45;&gt;Node6</title>
<path fill="none" stroke="midnightblue" d="M216.71,-224.44C191.93,-215.28 152.47,-200.68 124.98,-190.52"/>
<polygon fill="midnightblue" stroke="midnightblue" points="126.04,-187.17 115.44,-186.99 123.61,-193.74 126.04,-187.17"/>
</g>
<!-- Node7 -->
<g id="node7" class="node">
<title>Node7</title>
<g id="a_node7"><a xlink:title=" ">
<polygon fill="white" stroke="#bfbfbf" points="133.85,-168.5 133.85,-187.5 177.85,-187.5 177.85,-168.5 133.85,-168.5"/>
<text text-anchor="middle" x="155.85" y="-175.5" font-family="Helvetica,sans-Serif" font-size="10.00">limits</text>
</a>
</g>
</g>
<!-- Node2&#45;&gt;Node7 -->
<g id="edge6" class="edge">
<title>Node2&#45;&gt;Node7</title>
<path fill="none" stroke="midnightblue" d="M226.35,-224.32C213.25,-215.9 193.13,-202.97 177.74,-193.07"/>
<polygon fill="midnightblue" stroke="midnightblue" points="179.61,-190.12 169.31,-187.65 175.83,-196.01 179.61,-190.12"/>
</g>
<!-- Node8 -->
<g id="node8" class="node">
<title>Node8</title>
<g id="a_node8"><a xlink:title=" ">
<polygon fill="white" stroke="#bfbfbf" points="195.85,-168.5 195.85,-187.5 283.85,-187.5 283.85,-168.5 195.85,-168.5"/>
<text text-anchor="middle" x="239.85" y="-175.5" font-family="Helvetica,sans-Serif" font-size="10.00">VCDParser.hpp</text>
</a>
</g>
</g>
<!-- Node2&#45;&gt;Node8 -->
<g id="edge7" class="edge">
<title>Node2&#45;&gt;Node8</title>
<path fill="none" stroke="midnightblue" d="M239.85,-224.08C239.85,-217.01 239.85,-206.86 239.85,-197.99"/>
<polygon fill="midnightblue" stroke="midnightblue" points="243.35,-197.75 239.85,-187.75 236.35,-197.75 243.35,-197.75"/>
</g>
<!-- Node9 -->
<g id="node9" class="node">
<title>Node9</title>
<g id="a_node9"><a xlink:href="VCDTypes_8hpp.html" target="_top" xlink:title="A file for common types and data structures used by the VCD parser.">
<polygon fill="white" stroke="black" points="234.85,-56.5 234.85,-75.5 320.85,-75.5 320.85,-56.5 234.85,-56.5"/>
<text text-anchor="middle" x="277.85" y="-63.5" font-family="Helvetica,sans-Serif" font-size="10.00">VCDTypes.hpp</text>
</a>
</g>
</g>
<!-- Node2&#45;&gt;Node9 -->
<g id="edge8" class="edge">
<title>Node2&#45;&gt;Node9</title>
<path fill="none" stroke="midnightblue" d="M292.6,-231.8C325.42,-227.98 365.34,-217.08 386.85,-188 417.89,-146.03 347.47,-101.67 305.78,-80.19"/>
<polygon fill="midnightblue" stroke="midnightblue" points="307.13,-76.95 296.63,-75.6 304,-83.21 307.13,-76.95"/>
</g>
<!-- Node13 -->
<g id="node13" class="node">
<title>Node13</title>
<g id="a_node13"><a xlink:href="VCDFile_8hpp.html" target="_top" xlink:title=" ">
<polygon fill="white" stroke="black" points="301.85,-168.5 301.85,-187.5 377.85,-187.5 377.85,-168.5 301.85,-168.5"/>
<text text-anchor="middle" x="339.85" y="-175.5" font-family="Helvetica,sans-Serif" font-size="10.00">VCDFile.hpp</text>
</a>
</g>
</g>
<!-- Node2&#45;&gt;Node13 -->
<g id="edge14" class="edge">
<title>Node2&#45;&gt;Node13</title>
<path fill="none" stroke="midnightblue" d="M255.91,-224.32C271.8,-215.74 296.35,-202.49 314.8,-192.52"/>
<polygon fill="midnightblue" stroke="midnightblue" points="316.68,-195.49 323.82,-187.65 313.36,-189.33 316.68,-195.49"/>
</g>
<!-- Node9&#45;&gt;Node3 -->
<g id="edge11" class="edge">
<title>Node9&#45;&gt;Node3</title>
<path fill="none" stroke="midnightblue" d="M295.2,-56.32C312.52,-47.66 339.36,-34.24 359.35,-24.25"/>
<polygon fill="midnightblue" stroke="midnightblue" points="361.16,-27.26 368.54,-19.65 358.03,-21 361.16,-27.26"/>
</g>
<!-- Node9&#45;&gt;Node4 -->
<g id="edge9" class="edge">
<title>Node9&#45;&gt;Node4</title>
<path fill="none" stroke="midnightblue" d="M254.87,-56.44C229.55,-47.01 188.79,-31.84 161.43,-21.65"/>
<polygon fill="midnightblue" stroke="midnightblue" points="162.6,-18.35 152.01,-18.14 160.16,-24.91 162.6,-18.35"/>
</g>
<!-- Node10 -->
<g id="node10" class="node">
<title>Node10</title>
<g id="a_node10"><a xlink:title=" ">
<polygon fill="white" stroke="#bfbfbf" points="300.35,-0.5 300.35,-19.5 345.35,-19.5 345.35,-0.5 300.35,-0.5"/>
<text text-anchor="middle" x="322.85" y="-7.5" font-family="Helvetica,sans-Serif" font-size="10.00">utility</text>
</a>
</g>
</g>
<!-- Node9&#45;&gt;Node10 -->
<g id="edge10" class="edge">
<title>Node9&#45;&gt;Node10</title>
<path fill="none" stroke="midnightblue" d="M285.28,-56.08C291.7,-48.38 301.15,-37.03 308.97,-27.65"/>
<polygon fill="midnightblue" stroke="midnightblue" points="311.84,-29.67 315.55,-19.75 306.46,-25.19 311.84,-29.67"/>
</g>
<!-- Node11 -->
<g id="node11" class="node">
<title>Node11</title>
<g id="a_node11"><a xlink:title=" ">
<polygon fill="white" stroke="#bfbfbf" points="170.35,-0.5 170.35,-19.5 217.35,-19.5 217.35,-0.5 170.35,-0.5"/>
<text text-anchor="middle" x="193.85" y="-7.5" font-family="Helvetica,sans-Serif" font-size="10.00">vector</text>
</a>
</g>
</g>
<!-- Node9&#45;&gt;Node11 -->
<g id="edge12" class="edge">
<title>Node9&#45;&gt;Node11</title>
<path fill="none" stroke="midnightblue" d="M264.35,-56.32C251.25,-47.9 231.13,-34.97 215.74,-25.07"/>
<polygon fill="midnightblue" stroke="midnightblue" points="217.61,-22.12 207.31,-19.65 213.83,-28.01 217.61,-22.12"/>
</g>
<!-- Node12 -->
<g id="node12" class="node">
<title>Node12</title>
<g id="a_node12"><a xlink:title=" ">
<polygon fill="white" stroke="#bfbfbf" points="235.35,-0.5 235.35,-19.5 282.35,-19.5 282.35,-0.5 235.35,-0.5"/>
<text text-anchor="middle" x="258.85" y="-7.5" font-family="Helvetica,sans-Serif" font-size="10.00">deque</text>
</a>
</g>
</g>
<!-- Node9&#45;&gt;Node12 -->
<g id="edge13" class="edge">
<title>Node9&#45;&gt;Node12</title>
<path fill="none" stroke="midnightblue" d="M274.71,-56.08C272.16,-48.85 268.49,-38.41 265.32,-29.4"/>
<polygon fill="midnightblue" stroke="midnightblue" points="268.54,-28.02 261.92,-19.75 261.94,-30.35 268.54,-28.02"/>
</g>
<!-- Node13&#45;&gt;Node3 -->
<g id="edge16" class="edge">
<title>Node13&#45;&gt;Node3</title>
<path fill="none" stroke="midnightblue" d="M342.32,-168.08C349.56,-141.95 370.82,-65.21 380.7,-29.58"/>
<polygon fill="midnightblue" stroke="midnightblue" points="384.17,-30.14 383.47,-19.57 377.43,-28.27 384.17,-30.14"/>
</g>
<!-- Node13&#45;&gt;Node4 -->
<g id="edge15" class="edge">
<title>Node13&#45;&gt;Node4</title>
<path fill="none" stroke="midnightblue" d="M301.58,-168.8C276.48,-162.02 243.97,-150.46 219.85,-132 182.66,-103.55 154.57,-54.85 141.3,-28.75"/>
<polygon fill="midnightblue" stroke="midnightblue" points="144.37,-27.08 136.81,-19.66 138.1,-30.17 144.37,-27.08"/>
</g>
<!-- Node13&#45;&gt;Node9 -->
<g id="edge18" class="edge">
<title>Node13&#45;&gt;Node9</title>
<path fill="none" stroke="midnightblue" d="M301.71,-169.3C281.09,-162.99 257.34,-151.74 244.85,-132 234.66,-115.91 247.85,-96.28 260.45,-82.83"/>
<polygon fill="midnightblue" stroke="midnightblue" points="263,-85.23 267.63,-75.7 258.07,-80.26 263,-85.23"/>
</g>
<!-- Node13&#45;&gt;Node11 -->
<g id="edge17" class="edge">
<title>Node13&#45;&gt;Node11</title>
<path fill="none" stroke="midnightblue" d="M302.53,-168.38C281.07,-161.69 255.03,-150.38 237.85,-132 210.58,-102.85 199.94,-55.49 196,-29.51"/>
<polygon fill="midnightblue" stroke="midnightblue" points="199.46,-28.96 194.66,-19.51 192.52,-29.89 199.46,-28.96"/>
</g>
<!-- Node13&#45;&gt;Node14 -->
<g id="edge19" class="edge">
<title>Node13&#45;&gt;Node14</title>
<path fill="none" stroke="midnightblue" d="M332.74,-168.08C326.61,-160.38 317.58,-149.03 310.11,-139.65"/>
<polygon fill="midnightblue" stroke="midnightblue" points="312.78,-137.39 303.81,-131.75 307.3,-141.75 312.78,-137.39"/>
</g>
<!-- Node14&#45;&gt;Node9 -->
<g id="edge20" class="edge">
<title>Node14&#45;&gt;Node9</title>
<path fill="none" stroke="midnightblue" d="M293.71,-112.08C291.16,-104.85 287.49,-94.41 284.32,-85.4"/>
<polygon fill="midnightblue" stroke="midnightblue" points="287.54,-84.02 280.92,-75.75 280.94,-86.35 287.54,-84.02"/>
</g>
</g>
</svg>
