<?xml version="1.0" encoding="UTF-8" standalone="no"?>
<!DOCTYPE svg PUBLIC "-//W3C//DTD SVG 1.1//EN"
 "http://www.w3.org/Graphics/SVG/1.1/DTD/svg11.dtd">
<!-- Generated by graphviz version 2.43.0 (0)
 -->
<!-- Title: src/VCDTypes.hpp Pages: 1 -->
<svg width="398pt" height="252pt"
 viewBox="0.00 0.00 398.00 252.00" xmlns="http://www.w3.org/2000/svg" xmlns:xlink="http://www.w3.org/1999/xlink">
<g id="graph0" class="graph" transform="scale(1 1) rotate(0) translate(4 248)">
<title>src/VCDTypes.hpp</title>
<polygon fill="white" stroke="transparent" points="-4,4 -4,-248 394,-248 394,4 -4,4"/>
<!-- Node1 -->
<g id="node1" class="node">
<title>Node1</title>
<g id="a_node1"><a xlink:title="A file for common types and data structures used by the VCD parser.">
<polygon fill="#bfbfbf" stroke="black" points="128,-224.5 128,-243.5 232,-243.5 232,-224.5 128,-224.5"/>
<text text-anchor="middle" x="180" y="-231.5" font-family="Helvetica,sans-Serif" font-size="10.00">src/VCDTypes.hpp</text>
</a>
</g>
</g>
<!-- Node2 -->
<g id="node2" class="node">
<title>Node2</title>
<g id="a_node2"><a xlink:href="VCDFile_8hpp.html" target="_top" xlink:title=" ">
<polygon fill="white" stroke="black" points="58.5,-112.5 58.5,-131.5 151.5,-131.5 151.5,-112.5 58.5,-112.5"/>
<text text-anchor="middle" x="105" y="-119.5" font-family="Helvetica,sans-Serif" font-size="10.00">src/VCDFile.hpp</text>
</a>
</g>
</g>
<!-- Node1&#45;&gt;Node2 -->
<g id="edge1" class="edge">
<title>Node1&#45;&gt;Node2</title>
<path fill="none" stroke="midnightblue" d="M168.38,-215.96C152.13,-192.12 123.21,-149.71 110.86,-131.59"/>
<polygon fill="midnightblue" stroke="midnightblue" points="165.59,-218.08 174.11,-224.37 171.37,-214.13 165.59,-218.08"/>
</g>
<!-- Node4 -->
<g id="node4" class="node">
<title>Node4</title>
<g id="a_node4"><a xlink:href="VCDFileParser_8hpp.html" target="_top" xlink:title="Contains the declaration of the parser driver class.">
<polygon fill="white" stroke="black" points="110,-56.5 110,-75.5 232,-75.5 232,-56.5 110,-56.5"/>
<text text-anchor="middle" x="171" y="-63.5" font-family="Helvetica,sans-Serif" font-size="10.00">src/VCDFileParser.hpp</text>
</a>
</g>
</g>
<!-- Node1&#45;&gt;Node4 -->
<g id="edge10" class="edge">
<title>Node1&#45;&gt;Node4</title>
<path fill="none" stroke="midnightblue" d="M178.97,-213.93C177.01,-177.92 172.86,-101.23 171.46,-75.57"/>
<polygon fill="midnightblue" stroke="midnightblue" points="175.48,-214.28 179.52,-224.08 182.47,-213.9 175.48,-214.28"/>
</g>
<!-- Node7 -->
<g id="node7" class="node">
<title>Node7</title>
<g id="a_node7"><a xlink:href="VCDValue_8hpp.html" target="_top" xlink:title=" ">
<polygon fill="white" stroke="black" points="208.5,-168.5 208.5,-187.5 311.5,-187.5 311.5,-168.5 208.5,-168.5"/>
<text text-anchor="middle" x="260" y="-175.5" font-family="Helvetica,sans-Serif" font-size="10.00">src/VCDValue.hpp</text>
</a>
</g>
</g>
<!-- Node1&#45;&gt;Node7 -->
<g id="edge6" class="edge">
<title>Node1&#45;&gt;Node7</title>
<path fill="none" stroke="midnightblue" d="M201.3,-218.62C215.92,-208.76 234.83,-195.99 247.18,-187.65"/>
<polygon fill="midnightblue" stroke="midnightblue" points="199.18,-215.83 192.85,-224.32 203.1,-221.63 199.18,-215.83"/>
</g>
<!-- Node3 -->
<g id="node3" class="node">
<title>Node3</title>
<g id="a_node3"><a xlink:href="VCDFile_8cpp.html" target="_top" xlink:title=" ">
<polygon fill="white" stroke="black" points="0,-56.5 0,-75.5 92,-75.5 92,-56.5 0,-56.5"/>
<text text-anchor="middle" x="46" y="-63.5" font-family="Helvetica,sans-Serif" font-size="10.00">src/VCDFile.cpp</text>
</a>
</g>
</g>
<!-- Node2&#45;&gt;Node3 -->
<g id="edge2" class="edge">
<title>Node2&#45;&gt;Node3</title>
<path fill="none" stroke="midnightblue" d="M88.11,-105.54C77.59,-95.91 64.43,-83.87 55.65,-75.83"/>
<polygon fill="midnightblue" stroke="midnightblue" points="85.78,-108.15 95.52,-112.32 90.51,-102.99 85.78,-108.15"/>
</g>
<!-- Node2&#45;&gt;Node4 -->
<g id="edge3" class="edge">
<title>Node2&#45;&gt;Node4</title>
<path fill="none" stroke="midnightblue" d="M123.55,-105.82C135.38,-96.15 150.29,-83.95 160.2,-75.83"/>
<polygon fill="midnightblue" stroke="midnightblue" points="121.13,-103.28 115.6,-112.32 125.56,-108.7 121.13,-103.28"/>
</g>
<!-- Node5 -->
<g id="node5" class="node">
<title>Node5</title>
<g id="a_node5"><a xlink:href="VCDFileParser_8cpp.html" target="_top" xlink:title="Definition of the VCDFileParser class.">
<polygon fill="white" stroke="black" points="55,-0.5 55,-19.5 177,-19.5 177,-0.5 55,-0.5"/>
<text text-anchor="middle" x="116" y="-7.5" font-family="Helvetica,sans-Serif" font-size="10.00">src/VCDFileParser.cpp</text>
</a>
</g>
</g>
<!-- Node4&#45;&gt;Node5 -->
<g id="edge4" class="edge">
<title>Node4&#45;&gt;Node5</title>
<path fill="none" stroke="midnightblue" d="M154.71,-49C144.96,-39.43 132.95,-27.64 124.91,-19.75"/>
<polygon fill="midnightblue" stroke="midnightblue" points="152.33,-51.57 161.92,-56.08 157.23,-46.58 152.33,-51.57"/>
</g>
<!-- Node6 -->
<g id="node6" class="node">
<title>Node6</title>
<g id="a_node6"><a xlink:href="VCDStandalone_8cpp.html" target="_top" xlink:title="Definition of the VCDFileParser class.">
<polygon fill="white" stroke="black" points="195,-0.5 195,-19.5 325,-19.5 325,-0.5 195,-0.5"/>
<text text-anchor="middle" x="260" y="-7.5" font-family="Helvetica,sans-Serif" font-size="10.00">src/VCDStandalone.cpp</text>
</a>
</g>
</g>
<!-- Node4&#45;&gt;Node6 -->
<g id="edge5" class="edge">
<title>Node4&#45;&gt;Node6</title>
<path fill="none" stroke="midnightblue" d="M194.24,-50.9C210.56,-41 231.87,-28.07 245.74,-19.65"/>
<polygon fill="midnightblue" stroke="midnightblue" points="192.03,-48.14 185.3,-56.32 195.66,-54.13 192.03,-48.14"/>
</g>
<!-- Node7&#45;&gt;Node2 -->
<g id="edge7" class="edge">
<title>Node7&#45;&gt;Node2</title>
<path fill="none" stroke="midnightblue" d="M225.67,-165.04C196.5,-154.88 155.36,-140.55 129.45,-131.52"/>
<polygon fill="midnightblue" stroke="midnightblue" points="224.84,-168.46 235.44,-168.44 227.15,-161.85 224.84,-168.46"/>
</g>
<!-- Node7&#45;&gt;Node6 -->
<g id="edge8" class="edge">
<title>Node7&#45;&gt;Node6</title>
<path fill="none" stroke="midnightblue" d="M260,-157.93C260,-121.92 260,-45.23 260,-19.57"/>
<polygon fill="midnightblue" stroke="midnightblue" points="256.5,-158.08 260,-168.08 263.5,-158.08 256.5,-158.08"/>
</g>
<!-- Node8 -->
<g id="node8" class="node">
<title>Node8</title>
<g id="a_node8"><a xlink:href="VCDValue_8cpp.html" target="_top" xlink:title=" ">
<polygon fill="white" stroke="black" points="288,-112.5 288,-131.5 390,-131.5 390,-112.5 288,-112.5"/>
<text text-anchor="middle" x="339" y="-119.5" font-family="Helvetica,sans-Serif" font-size="10.00">src/VCDValue.cpp</text>
</a>
</g>
</g>
<!-- Node7&#45;&gt;Node8 -->
<g id="edge9" class="edge">
<title>Node7&#45;&gt;Node8</title>
<path fill="none" stroke="midnightblue" d="M281.03,-162.62C295.47,-152.76 314.14,-139.99 326.34,-131.65"/>
<polygon fill="midnightblue" stroke="midnightblue" points="278.97,-159.79 272.69,-168.32 282.92,-165.57 278.97,-159.79"/>
</g>
</g>
</svg>
