<?xml version="1.0" encoding="UTF-8" standalone="no"?>
<!DOCTYPE svg PUBLIC "-//W3C//DTD SVG 1.1//EN"
 "http://www.w3.org/Graphics/SVG/1.1/DTD/svg11.dtd">
<!-- Generated by graphviz version 2.43.0 (0)
 -->
<!-- Title: src/VCDTypes.hpp Pages: 1 -->
<svg width="303pt" height="84pt"
 viewBox="0.00 0.00 302.50 84.00" xmlns="http://www.w3.org/2000/svg" xmlns:xlink="http://www.w3.org/1999/xlink">
<g id="graph0" class="graph" transform="scale(1 1) rotate(0) translate(4 80)">
<title>src/VCDTypes.hpp</title>
<polygon fill="white" stroke="transparent" points="-4,4 -4,-80 298.5,-80 298.5,4 -4,4"/>
<!-- Node1 -->
<g id="node1" class="node">
<title>Node1</title>
<g id="a_node1"><a xlink:title="A file for common types and data structures used by the VCD parser.">
<polygon fill="#bfbfbf" stroke="black" points="90,-56.5 90,-75.5 194,-75.5 194,-56.5 90,-56.5"/>
<text text-anchor="middle" x="142" y="-63.5" font-family="Helvetica,sans-Serif" font-size="10.00">src/VCDTypes.hpp</text>
</a>
</g>
</g>
<!-- Node2 -->
<g id="node2" class="node">
<title>Node2</title>
<g id="a_node2"><a xlink:title=" ">
<polygon fill="white" stroke="#bfbfbf" points="0,-0.5 0,-19.5 38,-19.5 38,-0.5 0,-0.5"/>
<text text-anchor="middle" x="19" y="-7.5" font-family="Helvetica,sans-Serif" font-size="10.00">map</text>
</a>
</g>
</g>
<!-- Node1&#45;&gt;Node2 -->
<g id="edge1" class="edge">
<title>Node1&#45;&gt;Node2</title>
<path fill="none" stroke="midnightblue" d="M122.51,-56.44C102.36,-47.6 70.68,-33.69 47.67,-23.59"/>
<polygon fill="midnightblue" stroke="midnightblue" points="48.96,-20.33 38.4,-19.52 46.15,-26.74 48.96,-20.33"/>
</g>
<!-- Node3 -->
<g id="node3" class="node">
<title>Node3</title>
<g id="a_node3"><a xlink:title=" ">
<polygon fill="white" stroke="#bfbfbf" points="56.5,-0.5 56.5,-19.5 101.5,-19.5 101.5,-0.5 56.5,-0.5"/>
<text text-anchor="middle" x="79" y="-7.5" font-family="Helvetica,sans-Serif" font-size="10.00">utility</text>
</a>
</g>
</g>
<!-- Node1&#45;&gt;Node3 -->
<g id="edge2" class="edge">
<title>Node1&#45;&gt;Node3</title>
<path fill="none" stroke="midnightblue" d="M131.88,-56.32C122.47,-48.26 108.26,-36.08 96.93,-26.37"/>
<polygon fill="midnightblue" stroke="midnightblue" points="99.18,-23.68 89.31,-19.83 94.62,-29 99.18,-23.68"/>
</g>
<!-- Node4 -->
<g id="node4" class="node">
<title>Node4</title>
<g id="a_node4"><a xlink:title=" ">
<polygon fill="white" stroke="#bfbfbf" points="120,-0.5 120,-19.5 164,-19.5 164,-0.5 120,-0.5"/>
<text text-anchor="middle" x="142" y="-7.5" font-family="Helvetica,sans-Serif" font-size="10.00">string</text>
</a>
</g>
</g>
<!-- Node1&#45;&gt;Node4 -->
<g id="edge3" class="edge">
<title>Node1&#45;&gt;Node4</title>
<path fill="none" stroke="midnightblue" d="M142,-56.08C142,-49.01 142,-38.86 142,-29.99"/>
<polygon fill="midnightblue" stroke="midnightblue" points="145.5,-29.75 142,-19.75 138.5,-29.75 145.5,-29.75"/>
</g>
<!-- Node5 -->
<g id="node5" class="node">
<title>Node5</title>
<g id="a_node5"><a xlink:title=" ">
<polygon fill="white" stroke="#bfbfbf" points="182.5,-0.5 182.5,-19.5 229.5,-19.5 229.5,-0.5 182.5,-0.5"/>
<text text-anchor="middle" x="206" y="-7.5" font-family="Helvetica,sans-Serif" font-size="10.00">vector</text>
</a>
</g>
</g>
<!-- Node1&#45;&gt;Node5 -->
<g id="edge4" class="edge">
<title>Node1&#45;&gt;Node5</title>
<path fill="none" stroke="midnightblue" d="M152.28,-56.32C161.84,-48.26 176.28,-36.08 187.78,-26.37"/>
<polygon fill="midnightblue" stroke="midnightblue" points="190.14,-28.96 195.53,-19.83 185.63,-23.61 190.14,-28.96"/>
</g>
<!-- Node6 -->
<g id="node6" class="node">
<title>Node6</title>
<g id="a_node6"><a xlink:title=" ">
<polygon fill="white" stroke="#bfbfbf" points="247.5,-0.5 247.5,-19.5 294.5,-19.5 294.5,-0.5 247.5,-0.5"/>
<text text-anchor="middle" x="271" y="-7.5" font-family="Helvetica,sans-Serif" font-size="10.00">deque</text>
</a>
</g>
</g>
<!-- Node1&#45;&gt;Node6 -->
<g id="edge5" class="edge">
<title>Node1&#45;&gt;Node6</title>
<path fill="none" stroke="midnightblue" d="M162.44,-56.44C183.67,-47.56 217.1,-33.56 241.25,-23.45"/>
<polygon fill="midnightblue" stroke="midnightblue" points="242.78,-26.61 250.66,-19.52 240.08,-20.15 242.78,-26.61"/>
</g>
</g>
</svg>
